<svg width="40" height="40" viewBox="0 0 40 40" fill="none" xmlns="http://www.w3.org/2000/svg">
<path fill-rule="evenodd" clip-rule="evenodd" d="M20.7587 0.740815C20.7588 0.331715 20.4094 4.07407e-05 19.9784 0L19.9721 2.22524e-05C19.544 0.00312596 19.1979 0.333518 19.1978 0.740666L19.1977 1.44278C9.71758 1.74552 1.81579 7.54096 0.0519946 15.2754C-0.168085 16.2404 0.33642 17.0362 1.07626 17.4338C1.79253 17.8187 2.74676 17.8509 3.55996 17.3978C4.44429 16.905 5.3753 16.481 6.16911 16.3054C7.07229 16.1055 8.25401 16.4313 9.26505 16.8676C9.75351 17.0785 10.2677 17.0335 10.6855 16.8586C11.1573 17.2704 11.8978 17.3776 12.4856 17.1091C12.9617 16.8917 13.5506 16.6501 14.1536 16.4688C14.7659 16.2846 15.3434 16.1778 15.8121 16.193C16.3394 16.2101 17.002 16.3899 17.6691 16.6431C18.2684 16.8706 18.8196 17.1371 19.1977 17.3331V18.8889C19.1977 19.298 19.5471 19.6296 19.9782 19.6296C20.4092 19.6296 20.7586 19.298 20.7586 18.8889V17.4462C20.81 17.4246 20.8605 17.4004 20.9099 17.3735C21.285 17.1694 21.8788 16.8682 22.5293 16.6196C23.1949 16.3653 23.8482 16.1943 24.3628 16.1934C25.1722 16.192 26.28 16.6011 27.1399 16.9996C27.7248 17.2707 28.4842 17.171 28.9591 16.7462C29.3689 16.9214 29.8731 16.9735 30.3597 16.774C30.8987 16.5531 31.5147 16.348 32.121 16.2427C32.7341 16.1361 33.2777 16.1423 33.709 16.2841C34.5756 16.5688 35.6018 17.0756 36.5419 17.5983C37.3391 18.0414 38.2666 18.0048 38.9623 17.6176C39.678 17.2195 40.1517 16.4401 39.9554 15.5089C38.2994 7.65811 30.3334 1.74867 20.7587 1.44278L20.7587 0.740815ZM14.8268 7.51456C16.4721 5.46056 18.4617 3.925 19.9482 3.04985C21.3741 4.00956 23.2554 5.59555 24.8277 7.59259C26.3389 9.51192 27.5266 11.7617 27.8016 14.1648C27.8311 14.4225 27.8501 14.6819 27.8579 14.9428C27.8604 15.0296 27.8618 15.1166 27.8619 15.2036L27.8619 15.2145C27.8619 15.3674 27.8579 15.5209 27.85 15.6748C27.8419 15.6744 27.8335 15.6725 27.8247 15.6684C26.9608 15.268 25.5643 14.7098 24.3599 14.712C23.5462 14.7134 22.6723 14.968 21.9463 15.2453C21.2053 15.5285 20.5435 15.8652 20.1336 16.0883C20.1224 16.0944 20.1084 16.0982 20.093 16.0983C20.0777 16.0984 20.0643 16.0948 20.0539 16.0894C19.6442 15.8733 18.9852 15.5471 18.2487 15.2676C17.5259 14.9932 16.6637 14.7383 15.8655 14.7124C15.1413 14.6889 14.3693 14.8498 13.6821 15.0565C12.9856 15.266 12.325 15.5384 11.8088 15.7742C11.7988 15.7787 11.7899 15.7802 11.7812 15.7799L11.779 15.7798L11.7771 15.7797C11.6828 12.5652 13.0324 9.75478 14.8268 7.51456ZM29.5484 15.3683C29.4473 15.304 29.4245 15.2323 29.4228 15.2055C29.4212 12.076 28.0091 9.22367 26.2478 6.92418C25.0712 5.38818 23.7182 4.07115 22.4679 3.04815C30.6108 3.94767 37.0324 9.19726 38.425 15.7997C38.4777 16.0506 38.3727 16.2283 38.1729 16.3395C37.9536 16.4616 37.6298 16.4863 37.3309 16.32C36.3639 15.7824 35.2327 15.217 34.2197 14.8841C33.4377 14.6271 32.5951 14.6542 31.84 14.7854C31.078 14.9177 30.3437 15.1668 29.7409 15.4139C29.7257 15.4202 29.6534 15.435 29.5484 15.3683ZM17.2238 3.079C9.29345 4.05126 3.04418 9.15726 1.57753 15.5888C1.51966 15.8424 1.62381 16.0256 1.84529 16.1446C2.09034 16.2763 2.45012 16.2983 2.76978 16.1202C3.69868 15.6026 4.7908 15.0891 5.81476 14.8626C7.25874 14.5431 8.85786 15.0644 9.91112 15.519C9.92954 15.527 9.99997 15.5407 10.0983 15.4815C10.1966 15.4223 10.2119 15.3573 10.2121 15.3398C10.2474 11.8094 11.8061 8.78344 13.7246 6.44474C14.8279 5.09978 16.0619 3.96715 17.2238 3.079Z" fill="#018AFE"/>
<path fill-rule="evenodd" clip-rule="evenodd" d="M3.41211 27.7071C3.41211 25.2879 5.47836 23.3267 8.02722 23.3267C10.5761 23.3267 12.6424 25.2879 12.6424 27.7071V28.3401C12.6424 30.7594 10.5761 32.7206 8.02722 32.7206C5.47836 32.7206 3.41211 30.7594 3.41211 28.3401V27.7071ZM8.02722 24.8081C6.34037 24.8081 4.97296 26.1061 4.97296 27.7071V28.3401C4.97296 29.9412 6.34037 31.2391 8.02722 31.2391C9.71407 31.2391 11.0815 29.9412 11.0815 28.3401V27.7071C11.0815 26.1061 9.71407 24.8081 8.02722 24.8081Z" fill="#018AFE"/>
<path d="M5.69265 32.8219C2.59128 32.8219 0.0771484 35.2083 0.0771484 38.152C0.0771484 38.5609 0.426544 38.8927 0.857572 38.8927C1.2886 38.8927 1.638 38.5609 1.638 38.152C1.638 36.0264 3.45334 34.3034 5.69265 34.3034H9.69411C10.6457 34.3034 11.5189 34.6134 12.2104 35.1338C12.2459 35.1605 12.2832 35.1838 12.3217 35.2038C12.1656 35.6857 12.0815 36.1971 12.0815 36.7275V39.2594C12.0815 39.6686 12.4309 40.0001 12.8619 40.0001C13.2929 40.0001 13.6423 39.6686 13.6423 39.2594V36.7275C13.6423 34.6894 15.383 33.0371 17.5303 33.0371H22.1986C24.3459 33.0371 26.0866 34.6894 26.0866 36.7275V39.2594C26.0866 39.6686 26.4359 40.0001 26.867 40.0001C27.298 40.0001 27.6474 39.6686 27.6474 39.2594V36.7275C27.6474 36.1642 27.5526 35.6223 27.3773 35.1149C28.0648 34.606 28.9282 34.3034 29.8682 34.3034H33.8696C36.1089 34.3034 37.9242 36.0264 37.9242 38.152C37.9242 38.5609 38.2738 38.8927 38.7046 38.8927C39.1358 38.8927 39.485 38.5609 39.485 38.152C39.485 35.2083 36.9709 32.8219 33.8696 32.8219H29.8682C28.6804 32.8219 27.5772 33.1726 26.6696 33.7705C25.6848 32.4316 24.0495 31.5557 22.1986 31.5557H17.5303C15.6447 31.5557 13.9829 32.4647 13.0047 33.8464C12.0764 33.2023 10.9311 32.8219 9.69411 32.8219H5.69265Z" fill="#018AFE"/>
<path fill-rule="evenodd" clip-rule="evenodd" d="M36.1508 27.7071C36.1508 25.2879 34.0846 23.3267 31.5356 23.3267C28.9867 23.3267 26.9204 25.2879 26.9204 27.7071V28.3401C26.9204 30.7594 28.9867 32.7206 31.5356 32.7206C34.0846 32.7206 36.1508 30.7594 36.1508 28.3401V27.7071ZM31.5356 24.8081C33.2224 24.8081 34.5899 26.1061 34.5899 27.7071V28.3401C34.5899 29.9412 33.2224 31.2391 31.5356 31.2391C29.8487 31.2391 28.4813 29.9412 28.4813 28.3401V27.7071C28.4813 26.1061 29.8487 24.8081 31.5356 24.8081Z" fill="#018AFE"/>
<path fill-rule="evenodd" clip-rule="evenodd" d="M14.9839 25.7481C14.9839 23.1873 17.1711 21.1113 19.8691 21.1113C22.5671 21.1113 24.7543 23.1873 24.7543 25.7481V26.4257C24.7543 28.9865 22.5671 31.0625 19.8691 31.0625C17.1711 31.0625 14.9839 28.9865 14.9839 26.4257V25.7481ZM19.8691 22.5928C18.0331 22.5928 16.5447 24.0055 16.5447 25.7481V26.4257C16.5447 28.1683 18.0331 29.581 19.8691 29.581C21.7051 29.581 23.1934 28.1683 23.1934 26.4257V25.7481C23.1934 24.0055 21.7051 22.5928 19.8691 22.5928Z" fill="#018AFE"/>
</svg>
