<svg width="40" height="44" viewBox="0 0 40 44" fill="none" xmlns="http://www.w3.org/2000/svg">
<path d="M33.4639 7.06481C29.9736 3.56386 25.2775 1.52106 20.331 1.35205V0.72428C20.331 0.532189 20.2546 0.347965 20.1184 0.212137C19.9823 0.0763078 19.7976 0 19.6051 0C19.4125 0 19.2279 0.0763078 19.0917 0.212137C18.9556 0.347965 18.8791 0.532189 18.8791 0.72428V1.3516C13.8088 1.53757 9.00839 3.67795 5.48746 7.32256C1.96652 10.9672 -0.000535881 15.832 1.09508e-07 20.8938C1.09508e-07 21.2027 0.00617097 21.4839 0.0187848 21.7539C0.0274694 21.9396 0.107353 22.1148 0.241908 22.2433C0.376463 22.3718 0.555392 22.4438 0.741675 22.4444H0.744035C0.929917 22.4444 1.10871 22.3733 1.24357 22.2456C1.37844 22.118 1.45909 21.9436 1.46892 21.7585C1.5237 20.7219 1.98203 19.7476 2.74627 19.0432C3.51051 18.3388 4.52024 17.96 5.56033 17.9875C6.60042 18.015 7.58865 18.4465 8.31446 19.1903C9.04028 19.934 9.4463 20.9311 9.44603 21.9691C9.44603 22.1612 9.52252 22.3454 9.65867 22.4813C9.79482 22.6171 9.97947 22.6934 10.172 22.6934C10.3646 22.6934 10.5492 22.6171 10.6854 22.4813C10.8215 22.3454 10.898 22.1612 10.898 21.9691C10.8955 21.4447 10.9968 20.925 11.1963 20.4397C11.3957 19.9545 11.6892 19.5134 12.06 19.1417C12.4308 18.77 12.8716 18.475 13.357 18.2737C13.8424 18.0725 14.3629 17.9689 14.8885 17.9689C15.4142 17.9689 15.9347 18.0725 16.4201 18.2737C16.9055 18.475 17.3462 18.77 17.717 19.1417C18.0878 19.5134 18.3814 19.9545 18.5808 20.4397C18.7802 20.925 18.8816 21.4447 18.8791 21.9691C18.8791 22.1612 18.9556 22.3454 19.0917 22.4813C19.2279 22.6171 19.4125 22.6934 19.6051 22.6934C19.7976 22.6934 19.9823 22.6171 20.1184 22.4813C20.2546 22.3454 20.331 22.1612 20.331 21.9691C20.3285 21.4447 20.4299 20.9249 20.6293 20.4397C20.8288 19.9545 21.1223 19.5133 21.4931 19.1416C21.8639 18.7699 22.3047 18.4749 22.7901 18.2737C23.2755 18.0724 23.796 17.9688 24.3217 17.9688C24.8474 17.9688 25.3678 18.0724 25.8533 18.2737C26.3387 18.4749 26.7794 18.7699 27.1502 19.1416C27.5211 19.5133 27.8146 19.9545 28.014 20.4397C28.2135 20.9249 28.3148 21.4447 28.3123 21.9691C28.3123 22.1612 28.3888 22.3454 28.525 22.4813C28.6611 22.6171 28.8458 22.6934 29.0383 22.6934C29.2308 22.6934 29.4155 22.6171 29.5516 22.4813C29.6878 22.3454 29.7643 22.1612 29.7643 21.9691C29.7646 20.936 30.1673 19.9434 30.8874 19.2009C31.6075 18.4584 32.5886 18.0242 33.6236 17.9898C34.6586 17.9555 35.6664 18.3238 36.4344 19.0169C37.2023 19.71 37.6702 20.6737 37.7393 21.7046C37.7519 21.8901 37.8354 22.0637 37.9728 22.1894C38.1101 22.3151 38.2906 22.3833 38.4769 22.3799C38.6632 22.3765 38.8411 22.3018 38.9737 22.1711C39.1063 22.0405 39.1835 21.864 39.1893 21.6781C39.1971 21.4254 39.2051 21.1641 39.2051 20.8938C39.2122 18.3245 38.7084 15.7793 37.7229 13.4056C36.7375 11.0318 35.2899 8.87665 33.4639 7.06481ZM5.45407 16.538C4.04335 16.5365 2.68745 17.083 1.67365 18.0617C2.80245 10.9238 8.12657 5.15868 15.039 3.366C14.022 4.33663 13.0916 5.64123 12.2843 7.2533C10.7567 10.3043 9.80249 14.1833 9.52843 18.3717C9.01856 17.7952 8.39155 17.3335 7.68908 17.0174C6.9866 16.7012 6.22472 16.5378 5.45407 16.538ZM14.8873 16.538C14.1619 16.5377 13.4438 16.6826 12.7755 16.964C12.1072 17.2455 11.5023 17.6579 10.9965 18.1767C11.281 14.2913 12.1747 10.7135 13.5828 7.90099C15.0549 4.96104 16.9132 3.19978 18.8786 2.85122V18.2802C18.37 17.7306 17.7527 17.2921 17.0658 16.9922C16.3789 16.6924 15.6371 16.5377 14.8873 16.538ZM24.323 16.538C23.5731 16.5377 22.8312 16.6923 22.1442 16.9921C21.4571 17.292 20.8398 17.7305 20.331 18.2802V2.85185C22.2938 3.20258 24.1499 4.9634 25.6209 7.90063C27.0292 10.7125 27.923 14.288 28.2082 18.1708C27.7026 17.6537 27.0984 17.2428 26.4311 16.9624C25.7638 16.682 25.0471 16.5377 24.323 16.538ZM33.7561 16.538C32.9842 16.5378 32.2212 16.7017 31.5178 17.0188C30.8144 17.3359 30.1869 17.799 29.677 18.3771C29.4032 14.1868 28.4485 10.3057 26.9197 7.25321C26.1121 5.64105 25.1816 4.33626 24.1646 3.36546C31.0788 5.15805 36.4042 10.9251 37.5316 18.0649C36.5193 17.0865 35.1655 16.5389 33.7561 16.538ZM24.4136 38.4739V43.2757C24.4136 43.4678 24.3371 43.652 24.2009 43.7879C24.0648 43.9237 23.8801 44 23.6876 44C23.4951 44 23.3104 43.9237 23.1742 43.7879C23.0381 43.652 22.9616 43.4678 22.9616 43.2757V38.4739C22.9616 38.2818 23.0381 38.0976 23.1742 37.9618C23.3104 37.826 23.4951 37.7496 23.6876 37.7496C23.8801 37.7496 24.0648 37.826 24.2009 37.9618C24.3371 38.0976 24.4136 38.2818 24.4136 38.4739ZM16.2434 38.4739V43.2757C16.2434 43.4678 16.167 43.652 16.0308 43.7879C15.8947 43.9237 15.71 44 15.5175 44C15.3249 44 15.1403 43.9237 15.0041 43.7879C14.868 43.652 14.7915 43.4678 14.7915 43.2757V38.4739C14.7915 38.2818 14.868 38.0976 15.0041 37.9618C15.1403 37.826 15.3249 37.7496 15.5175 37.7496C15.71 37.7496 15.8947 37.826 16.0308 37.9618C16.167 38.0976 16.2434 38.2818 16.2434 38.4739ZM30.5738 32.356C31.1653 31.5167 31.4722 30.4116 31.4722 29.3399C31.4746 28.8761 31.3851 28.4164 31.2088 27.9872C31.0325 27.5581 30.773 27.1679 30.4451 26.8391C30.1172 26.5103 29.7274 26.2494 29.2981 26.0713C28.8688 25.8933 28.4085 25.8016 27.9436 25.8016C27.4787 25.8016 27.0184 25.8933 26.5891 26.0713C26.1598 26.2494 25.77 26.5103 25.4421 26.8391C25.1142 27.1679 24.8547 27.5581 24.6784 27.9872C24.5021 28.4164 24.4126 28.8761 24.4149 29.3399C24.4149 30.4117 24.7219 31.5168 25.3133 32.3562C24.6879 32.4274 24.0895 32.6504 23.5704 33.0057C23.3084 32.9674 23.044 32.948 22.7792 32.9479C23.854 31.7487 24.4163 29.9698 24.4163 28.2518C24.4163 26.9778 23.909 25.756 23.0061 24.8551C22.1031 23.9543 20.8784 23.4482 19.6014 23.4482C18.3245 23.4482 17.0998 23.9543 16.1968 24.8551C15.2939 25.756 14.7866 26.9778 14.7866 28.2518C14.7866 29.6261 15.1886 31.0973 15.8621 32.1871C16.0276 32.4561 16.2159 32.7105 16.4247 32.9476C16.1601 32.9477 15.8959 32.967 15.6341 33.0053C15.1149 32.6506 14.5168 32.4277 13.8917 32.356C14.4834 31.5166 14.7906 30.4114 14.7906 29.3397C14.7929 28.8759 14.7034 28.4162 14.5271 27.987C14.3509 27.5578 14.0913 27.1676 13.7634 26.8388C13.4355 26.51 13.0457 26.2491 12.6164 26.0711C12.1871 25.893 11.7268 25.8014 11.2619 25.8014C10.797 25.8014 10.3367 25.893 9.90742 26.0711C9.47813 26.2491 9.08834 26.51 8.76044 26.8388C8.43254 27.1676 8.173 27.5578 7.99672 27.987C7.82045 28.4162 7.73092 28.8759 7.73328 29.3397C7.73328 30.4114 8.04027 31.5164 8.63167 32.3558C6.7876 32.5669 5.35407 34.0474 5.35407 35.8379V39.6388C5.35407 39.8309 5.43056 40.0152 5.56671 40.151C5.70285 40.2868 5.88751 40.3631 6.08005 40.3631C6.27259 40.3631 6.45724 40.2868 6.59339 40.151C6.72954 40.0152 6.80602 39.8309 6.80602 39.6388V35.8382C6.80602 34.7021 7.8282 33.7779 9.08459 33.7779H13.439C13.4748 33.7779 13.5104 33.781 13.5462 33.7825C12.2008 34.6451 11.3161 36.0936 11.3161 37.7323V43.2757C11.3161 43.4678 11.3926 43.652 11.5288 43.7879C11.6649 43.9237 11.8496 44 12.0421 44C12.2347 44 12.4193 43.9237 12.5555 43.7879C12.6916 43.652 12.7681 43.4678 12.7681 43.2757V37.7323C12.7681 35.8929 14.4089 34.3964 16.4252 34.3964H22.7766C24.7947 34.3964 26.4366 35.8929 26.4366 37.7323V43.2757C26.4366 43.4678 26.5131 43.652 26.6492 43.7879C26.7854 43.9237 26.97 44 27.1626 44C27.3551 44 27.5398 43.9237 27.6759 43.7879C27.8121 43.652 27.8885 43.4678 27.8885 43.2757V37.7323C27.8885 36.0936 27.0034 34.645 25.6574 33.7825C25.6937 33.781 25.7294 33.7779 25.7657 33.7779H30.1209C31.3773 33.7779 32.3995 34.7021 32.3995 35.8382V39.6391C32.3995 39.8312 32.476 40.0154 32.6121 40.1513C32.7483 40.2871 32.9329 40.3634 33.1255 40.3634C33.318 40.3634 33.5027 40.2871 33.6388 40.1513C33.7749 40.0154 33.8514 39.8312 33.8514 39.6391V35.8382C33.8518 34.0475 32.418 32.5669 30.5738 32.356ZM11.2601 27.2669C11.811 27.2674 12.3393 27.4861 12.7289 27.8748C13.1185 28.2634 13.3376 28.7904 13.3382 29.3401C13.3382 30.3155 12.83 32.3295 11.2601 32.3295C9.82862 32.3295 9.18468 30.5814 9.18468 29.3401C9.18492 28.7908 9.40357 28.264 9.79265 27.8753C10.1817 27.4867 10.7095 27.2678 11.2601 27.2669ZM19.6025 24.898C20.4938 24.899 21.3482 25.2527 21.9784 25.8814C22.6087 26.5102 22.9632 27.3626 22.9642 28.2518C22.9642 30.0674 22.0515 32.9479 19.6025 32.9479C17.1517 32.9479 16.2384 30.0674 16.2384 28.2518C16.2397 27.3623 16.5947 26.5096 17.2253 25.8809C17.856 25.2522 18.7109 24.8987 19.6025 24.898ZM27.9422 27.2669C28.4931 27.2674 29.0214 27.4861 29.411 27.8748C29.8006 28.2634 30.0197 28.7904 30.0203 29.3401C30.0203 30.5814 29.376 32.3295 27.9422 32.3295C26.3742 32.3295 25.8668 30.3155 25.8668 29.3401C25.867 28.7908 26.0857 28.264 26.4748 27.8753C26.8638 27.4867 27.3916 27.2678 27.9422 27.2669Z" fill="#018AFE"/>
</svg>
