<svg width="49" height="44" viewBox="0 0 49 44" fill="none" xmlns="http://www.w3.org/2000/svg">
<path d="M48.0833 20.0424L38.0336 7.16822C37.3964 6.35209 36.2143 6.20637 35.3984 6.84343L9.82419 26.8069C9.59996 26.9819 9.41655 27.2082 9.29232 27.4627L7.70826 27.455V27.2452C7.70826 26.3839 7.00756 25.6832 6.14618 25.6832H1.56228C0.700889 25.6832 0.000189378 26.384 0.000189378 27.2453L0 33.7584C0 34.1506 0.317871 34.4686 0.710168 34.4686C1.10237 34.4686 1.42034 34.1506 1.42034 33.7584L1.42043 27.2453C1.42043 27.1671 1.48406 27.1035 1.56218 27.1035H6.14608C6.2242 27.1035 6.28783 27.1671 6.28783 27.2452V39.318C6.28783 39.3962 6.2242 39.4599 6.14599 39.4599H1.56218C1.48397 39.4599 1.42034 39.3961 1.42034 39.318V36.5044C1.42034 36.1121 1.10247 35.7943 0.710168 35.7943C0.317871 35.7943 0 36.1121 0 36.5044V39.3182C0.000189378 40.1795 0.700889 40.8802 1.56218 40.8802H6.14599C7.00737 40.8802 7.70817 40.1794 7.70817 39.318V38.8908L9.44874 38.9912C10.2152 39.0356 10.9584 39.2181 11.658 39.534L19.6218 43.1304C20.895 43.7053 22.2719 44 23.6602 44C24.0479 44 24.4366 43.977 24.8241 43.9308L31.7198 43.107C33.1768 42.933 34.5406 42.3419 35.6641 41.3979C36.2852 40.8758 36.605 40.0824 36.5192 39.2757C36.4336 38.4688 35.9544 37.7602 35.2374 37.3802C34.4095 36.9415 33.3897 37.0202 32.6392 37.5808L32.505 37.681C32.9029 36.7607 32.6566 35.6903 31.9345 35.03L40.236 28.5498C40.5451 28.3084 40.6001 27.8621 40.3588 27.553C40.1173 27.2438 39.6712 27.1891 39.362 27.4302L24.7245 38.8564C24.2903 38.7952 23.8684 38.6592 23.4776 38.452L20.3842 36.8127C20.7457 36.5896 21.169 36.4965 21.5975 36.5491C22.0956 36.6105 22.5399 36.8622 22.8487 37.2577C23.0896 37.5663 23.5358 37.6221 23.8455 37.3805L42.2522 23.012C42.5613 22.7706 42.6164 22.3243 42.375 22.0152C42.0662 21.6197 41.93 21.1276 41.9913 20.6295C42.0527 20.1314 42.3044 19.6872 42.6999 19.3784C43.009 19.137 43.064 18.6907 42.8227 18.3816L38.3678 12.6746C38.2519 12.5262 38.0818 12.4298 37.8949 12.4068C37.7079 12.3835 37.5195 12.436 37.371 12.5518C36.9754 12.8605 36.4832 12.9969 35.9853 12.9355C35.4872 12.8742 35.0429 12.6225 34.7341 12.227C34.6182 12.0786 34.4481 11.9822 34.2612 11.9592C34.0742 11.936 33.8857 11.9884 33.7374 12.1042L15.3305 26.4726C15.0214 26.7139 14.9664 27.1602 15.2077 27.4694C15.7174 28.1224 15.7263 29.0097 15.2917 29.665C14.6264 28.3361 13.2608 27.4819 11.7657 27.4747L11.2799 27.4723L36.2722 7.96304C36.471 7.80803 36.7588 7.84335 36.9138 8.0422L46.9635 20.9164C47.0386 21.0127 47.0719 21.1324 47.0569 21.2536C47.0419 21.3748 46.9807 21.4829 46.8845 21.558L41.5264 25.7406C41.2172 25.982 41.1622 26.4283 41.4036 26.7374C41.6451 27.0468 42.0912 27.1015 42.4004 26.8602L47.7584 22.6776C48.1537 22.369 48.4052 21.9251 48.4665 21.4274C48.5281 20.9296 48.3919 20.4378 48.0833 20.0424ZM30.8016 35.9537C31.2376 36.192 31.403 36.7431 31.1704 37.1822L30.4289 38.5815L27.1238 38.7855L30.7715 35.9381C30.7815 35.943 30.7917 35.9482 30.8016 35.9537ZM16.7037 27.2025L34.1116 13.6139C34.5919 14.0128 35.177 14.267 35.8116 14.3453C36.4465 14.4228 37.0755 14.3188 37.6384 14.0483L41.3134 18.7565C40.4974 19.7426 40.3268 21.1272 40.879 22.282L23.4712 35.8708C22.9908 35.4718 22.4057 35.2177 21.7711 35.1394C21.2799 35.0793 20.7922 35.1281 20.336 35.2785C20.4982 34.8084 20.5078 34.3007 20.3589 33.8164C20.1733 33.2122 19.7635 32.7165 19.2049 32.4206L16.4512 30.9613L16.2693 30.7283C17.0854 29.7419 17.256 28.3574 16.7037 27.2025ZM14.0687 30.3998C14.4115 31.1658 15.0087 31.8041 15.7503 32.1971L18.5399 33.6754C18.7632 33.7937 18.927 33.9918 19.0013 34.2334C19.0754 34.475 19.0512 34.731 18.9328 34.9543C18.6907 35.411 18.1202 35.5889 17.664 35.3523L14.3225 33.6005C13.9758 33.4187 13.5472 33.5518 13.3645 33.8984C13.1819 34.2448 13.3142 34.6737 13.6602 34.857L22.8125 39.707C23.661 40.1567 24.6164 40.3634 25.5748 40.3039L31.0462 39.9664C31.5967 39.9325 32.1214 39.74 32.5634 39.4101L33.4891 38.7189C33.8023 38.4851 34.2275 38.4525 34.5724 38.6352C34.8758 38.796 35.0707 39.084 35.1069 39.4256C35.1432 39.7671 35.0133 40.0896 34.7503 40.3105C33.8391 41.0762 32.7329 41.5555 31.5514 41.6967L24.6556 42.5205C23.1379 42.7015 21.5994 42.4651 20.2064 41.8361L12.2426 38.2397C11.3838 37.8519 10.4714 37.6276 9.53065 37.5734L7.70817 37.4682V28.8754L11.7589 28.895C12.7551 28.8997 13.6617 29.4905 14.0687 30.3998Z" fill="#018AFE"/>
<path d="M26.1078 24.4951C26.4126 25.0856 26.9742 25.4532 27.5735 25.4546H27.5794C28.1506 25.4546 28.8079 25.2611 29.4333 25.0518C29.8403 24.9158 30.0518 25.1202 30.1576 25.3155C30.3072 25.5919 30.3077 26.0165 29.9551 26.2956C29.5568 26.6108 29.4397 26.6758 28.9912 26.7134C28.6004 26.7462 28.3102 27.0896 28.3428 27.4805C28.3739 27.8511 28.6843 28.1314 29.0497 28.1313C29.0696 28.1313 29.0897 28.1305 29.1099 28.1289C29.6031 28.0875 29.9312 27.9935 30.2482 27.8176L30.3156 27.9041C30.4556 28.0836 30.6648 28.1773 30.876 28.1773C31.0287 28.1773 31.1827 28.1283 31.3124 28.0271C31.6217 27.7857 31.6767 27.3394 31.4354 27.0303L31.3206 26.8832C31.7893 26.1665 31.7517 25.2768 31.4064 24.6394C30.9277 23.7554 29.9537 23.3796 28.9823 23.7051C28.4953 23.868 27.9482 24.0345 27.5794 24.0345C27.5239 24.035 27.4323 23.9654 27.3695 23.8439C27.3374 23.7816 27.243 23.5633 27.3793 23.3706C27.7789 22.8054 28.3497 22.6048 28.3723 22.597C28.7433 22.4787 28.9503 22.0833 28.835 21.7106C28.7192 21.3359 28.3218 21.1261 27.9467 21.242C27.8893 21.2598 27.5811 21.3616 27.2024 21.6081C26.9587 21.3116 26.5213 21.2622 26.217 21.4996C25.9078 21.741 25.8529 22.1873 26.0943 22.4963L26.1811 22.6074C25.8195 23.1626 25.7899 23.8795 26.1078 24.4951Z" fill="#018AFE"/>
<path d="M3.01037 19.3924C3.14123 19.8163 3.47577 20.1351 3.90547 20.2453C4.33877 20.3563 4.78437 20.2348 5.10073 19.9286L9.94256 15.2406C10.2016 14.9895 10.305 14.617 10.2124 14.2683C10.1197 13.9196 9.84513 13.6476 9.49544 13.5583L8.76349 13.3714C9.84428 10.7965 11.6907 8.68201 14.127 7.23648C18.7771 4.47734 24.7408 4.89956 28.9669 8.28696C29.5261 8.73475 30.3132 8.73797 30.8811 8.29463L32.7597 6.82818C33.1254 6.5426 33.3417 6.11262 33.3526 5.64855C33.3636 5.18798 33.1703 4.75212 32.8233 4.45376C32.8204 4.45111 32.8175 4.44846 32.8143 4.4459C30.6065 2.54899 27.9235 1.18547 25.0554 0.503046C20.6069 -0.555768 15.9495 0.0690853 11.9408 2.26208C10.2002 3.21409 8.63576 4.42668 7.29079 5.86614C7.02301 6.15267 7.03816 6.60207 7.32479 6.86994C7.61141 7.13753 8.06071 7.12248 8.32849 6.83585C9.57015 5.50717 11.0147 4.38767 12.6222 3.50838C16.3221 1.4845 20.6208 0.908126 24.7264 1.88484C27.4129 2.52418 29.8225 3.74833 31.8886 5.52327L31.8958 5.52952C31.921 5.55121 31.9334 5.5799 31.9326 5.61474C31.9319 5.64126 31.9232 5.67923 31.8855 5.70858L30.0069 7.17503C29.961 7.21082 29.8971 7.21224 29.855 7.17853C27.5801 5.3551 24.834 4.26883 21.9138 4.03713C18.9264 3.80069 15.9825 4.48396 13.4021 6.01499C10.5494 7.70766 8.42564 10.229 7.26021 13.3069C7.15955 13.5733 7.17698 13.8708 7.30822 14.1231C7.43898 14.3742 7.67126 14.5586 7.94566 14.6286L8.4103 14.7472L4.29332 18.7334L2.60482 13.2655L3.50844 13.4962C4.01465 13.6256 4.52559 13.35 4.69754 12.8551C5.18273 11.4573 5.85095 10.1256 6.68365 8.89695C6.9037 8.57226 6.81896 8.13063 6.49427 7.91067C6.16958 7.69042 5.72795 7.77526 5.50789 8.10005C4.67832 9.32428 3.99931 10.6428 3.48666 12.0246L2.22426 11.7025C1.87467 11.6132 1.50368 11.72 1.25521 11.9813C1.00666 12.2424 0.918405 12.6185 1.02484 12.9627L3.01037 19.3924Z" fill="#018AFE"/>
</svg>
