<svg width="39" height="40" viewBox="0 0 39 40" fill="none" xmlns="http://www.w3.org/2000/svg">
<path d="M34.4507 32.3724H34.3663C34.3737 31.105 34.3776 29.7457 34.3619 29.5575C34.2891 28.6852 33.3376 28.3052 32.7271 29.0541C32.4275 29.4216 31.0423 31.9189 30.6249 32.6755C30.4096 33.0656 30.6923 33.5449 31.1382 33.5449H33.1859C33.1834 33.8868 33.1807 34.2146 33.1782 34.5105C33.1714 35.2884 34.344 35.3026 34.3506 34.5206C34.3523 34.3386 34.3552 33.9843 34.3585 33.5449H34.4506C34.7744 33.5449 35.0369 33.2825 35.0369 32.9587C35.0369 32.6349 34.7745 32.3724 34.4507 32.3724ZM33.1936 32.3724H32.1345C32.5299 31.6652 32.9156 30.9865 33.2006 30.5001C33.2004 31.0037 33.1976 31.6754 33.1936 32.3724Z" fill="#018AFE"/>
<path d="M29.31 34.0967C29.3075 34.0967 29.3049 34.0967 29.3025 34.0968C28.7605 34.1036 28.1849 34.108 27.7125 34.1086C28.806 32.648 29.6725 31.5434 29.6725 30.6666C29.6725 29.599 28.804 28.7306 27.7365 28.7306C26.8134 28.7306 26.0144 29.3873 25.8368 30.2921C25.7744 30.6098 25.9814 30.9179 26.2991 30.9804C26.6167 31.0427 26.9249 30.8357 26.9873 30.5181C27.0573 30.1618 27.3724 29.9032 27.7365 29.9032C28.1467 29.9032 28.4825 30.2283 28.4994 30.6347C28.492 30.6561 28.508 30.9814 28.0191 31.6797C27.1834 32.8738 26.6847 33.5268 26.4168 33.8776C26.0888 34.307 25.9392 34.5029 26.0394 34.8287C26.0981 35.0198 26.2428 35.1664 26.4364 35.2309C26.6824 35.3128 28.5683 35.2786 29.3173 35.2693C29.6411 35.2652 29.9002 34.9995 29.8962 34.6757C29.892 34.3543 29.6304 34.0967 29.31 34.0967Z" fill="#018AFE"/>
<path d="M30.308 23.9357C25.8791 23.9357 22.2759 27.5389 22.2759 31.9679C22.2759 36.3969 25.8791 40 30.308 40C34.7369 40 38.3401 36.3969 38.3401 31.9679C38.3401 27.5389 34.7369 23.9357 30.308 23.9357ZM30.308 38.8275C26.5256 38.8275 23.4484 35.7503 23.4484 31.9679C23.4484 28.1854 26.5256 25.1082 30.308 25.1082C34.0904 25.1082 37.1676 28.1854 37.1676 31.9679C37.1676 35.7503 34.0904 38.8275 30.308 38.8275Z" fill="#018AFE"/>
<path d="M22.6845 37.2745H19.3656L17.7824 28.3423L18.5091 27.0941C19.0443 27.2513 19.6305 27.113 20.0428 26.7116C20.0448 26.7097 20.0468 26.7077 20.0488 26.7057L23.5923 23.1566C24.2577 23.3393 24.9033 23.5898 25.5154 23.903C25.803 24.0501 26.1564 23.9373 26.3044 23.6482C26.4519 23.3599 26.3378 23.0067 26.0496 22.8592C25.288 22.4695 24.4804 22.1669 23.6475 21.959L22.0842 21.0005C21.5892 20.6969 20.9527 20.7017 20.4623 21.0128L20.2852 21.1252C19.9686 20.664 20.043 20.2824 20.0747 19.6695C20.415 19.4502 20.7444 19.2009 21.0622 18.9214C21.5852 18.4616 22.0291 17.9173 22.3823 17.3135H23.577C24.93 17.3135 26.0308 16.2127 26.0308 14.8597V10.3018C26.0308 9.53727 25.5855 8.86188 24.9211 8.54703V5.33344C24.9211 3.89047 23.7471 2.71656 22.3041 2.71656H22.2357C22.1808 2.71656 22.1361 2.67188 22.1361 2.61695C22.1362 1.17398 20.9623 0 19.5192 0H13.0559C9.86086 0 7.26148 2.59938 7.26148 5.79445V8.54711C6.59703 8.86195 6.15172 9.53742 6.15172 10.3019V12.6199C6.15172 13.6913 7.02328 14.5627 8.09453 14.5627H8.90156C9.10047 16.2901 9.91031 17.8677 11.1784 18.9636C11.4785 19.2229 11.7884 19.4557 12.1079 19.662C12.0727 20.2634 12.2136 20.6705 11.8977 21.1255L11.7202 21.0128C11.2299 20.7017 10.5933 20.697 10.0984 21.0005L8.53562 21.9587C6.13141 22.5591 3.96461 23.9582 2.42555 25.9065C0.861406 27.8865 0 30.3669 0 32.8908V35.2424C0 37.0094 1.4375 38.4469 3.20445 38.4469H22.6844C23.0081 38.4469 23.2706 38.1845 23.2706 37.8606C23.2707 37.537 23.0082 37.2745 22.6845 37.2745ZM21.0904 22.003C21.2055 21.9298 21.3551 21.9288 21.4713 22.0001L22.4754 22.6158L19.2225 25.8738C19.0768 26.0133 18.8509 26.0212 18.6957 25.8916C18.1791 25.4602 17.3614 24.7771 17.0834 24.5449C18.0938 23.904 20.0857 22.6403 21.0904 22.003ZM19.2952 21.7533L16.0913 23.7858L12.8892 21.7545C13.3555 21.0538 13.2701 20.3649 13.2805 20.2825C14.1694 20.6556 15.1189 20.8472 16.1218 20.8542H16.1259C16.129 20.8542 16.132 20.8542 16.135 20.8541C17.1117 20.839 18.0364 20.6492 18.9022 20.2876C18.9129 20.3703 18.8237 21.0383 19.2952 21.7533ZM17.53 26.4456L16.8306 27.6468H15.3521L14.6527 26.4456L16.0914 25.2439L17.53 26.4456ZM20.6971 17.0991H19.1655C18.9053 17.0991 18.6937 16.8874 18.6937 16.6273C18.6937 16.3671 18.9053 16.1555 19.1655 16.1555H20.6971C20.9572 16.1555 21.1689 16.3672 21.1689 16.6273C21.1688 16.8874 20.9572 17.0991 20.6971 17.0991ZM24.8584 14.8598C24.8584 15.5663 24.2836 16.1412 23.577 16.1412H22.9273C23.1069 15.6366 23.2306 15.107 23.2936 14.5628H24.088C24.3616 14.5628 24.622 14.5059 24.8584 14.4035V14.8598ZM24.772 9.94774C24.8273 10.0543 24.8584 10.175 24.8584 10.302V12.62C24.8584 13.0448 24.5128 13.3903 24.088 13.3903H23.3382V11.0486C23.5118 10.9564 24.3725 10.8587 24.772 9.94774ZM8.84445 13.3902H8.09461C7.66984 13.3902 7.3243 13.0447 7.3243 12.6199V10.3019C7.3243 10.175 7.35531 10.0542 7.41062 9.94766C7.81047 10.8594 8.67344 10.9577 8.84445 11.0484V13.3902ZM8.83797 9.80461C8.59641 9.72047 8.43406 9.49211 8.43406 9.23625C8.43406 8.35008 8.43406 6.25039 8.43406 5.79445C8.43406 3.24586 10.5074 1.1725 13.0559 1.1725H19.5193C20.3158 1.1725 20.9637 1.82047 20.9637 2.61695C20.9637 3.31844 21.5343 3.88906 22.2358 3.88906H22.3042C23.1007 3.88906 23.7487 4.53703 23.7487 5.33344V9.23633C23.7487 9.49211 23.5864 9.72047 23.3448 9.80461C23.0548 9.90563 22.3664 10.1454 22.0623 10.2513C21.996 10.2745 21.9253 10.2268 21.9254 10.1536L21.9277 7.72828C21.9353 5.9157 20.2469 4.45734 17.9872 5.18359C16.8041 5.56367 15.3559 5.55633 14.1955 5.18367C11.9559 4.46359 10.2473 5.89399 10.2549 7.72649L10.2577 10.1538C10.2579 10.2252 10.1884 10.2748 10.1209 10.2513C9.81789 10.1458 9.12742 9.90539 8.83797 9.80461ZM11.9452 18.0765C9.95391 16.3558 10.0468 13.9312 10.017 13.7819V11.422C10.0626 11.4269 10.1083 11.4294 10.1539 11.4294C10.8662 11.4294 11.4312 10.8505 11.4302 10.1523L11.4273 7.72344C11.4233 6.75336 12.3002 5.80609 13.8367 6.3C15.2634 6.75828 16.9682 6.74258 18.3459 6.29992C19.7843 5.83781 20.7596 6.65445 20.7551 7.72539L20.7527 10.1523C20.7517 10.9043 21.4035 11.5039 22.1655 11.422V13.9351C22.147 14.4777 22.057 15.0074 21.902 15.5097C21.6016 15.1859 21.1725 14.983 20.697 14.983H19.1653C18.2586 14.983 17.521 15.7206 17.521 16.6273C17.521 17.534 18.2587 18.2716 19.1653 18.2716H20.0124C18.8915 19.1646 17.5907 19.6575 16.1232 19.6817C14.5326 19.669 13.1345 19.1041 11.9452 18.0765ZM10.7113 22.0001C10.8276 21.9288 10.977 21.9299 11.0922 22.003C12.1134 22.6508 14.0927 23.9065 15.0991 24.5449C13.5216 25.862 13.5187 25.8652 13.487 25.8916C13.3317 26.0212 13.1058 26.0134 12.9602 25.8738L9.70727 22.6158L10.7113 22.0001ZM12.8171 37.2745H7.00813V34.523C7.00813 34.1991 6.74562 33.9367 6.42188 33.9367C6.09812 33.9367 5.83562 34.1991 5.83562 34.523V37.2745H3.20453C2.08414 37.2745 1.17258 36.3629 1.17258 35.2425V32.8909C1.17258 30.6296 1.94438 28.4073 3.3457 26.6334C4.67555 24.9499 6.52828 23.7241 8.59023 23.1566L12.1339 26.7058C12.1359 26.7077 12.1378 26.7098 12.1398 26.7116C12.5512 27.1123 13.1371 27.2516 13.6735 27.0942L14.4002 28.3424L12.8171 37.2745ZM14.0078 37.2745L15.5065 28.8194H16.6761L18.1748 37.2745H14.0078Z" fill="#018AFE"/>
</svg>
