<svg width="71" height="72" viewBox="0 0 71 72" fill="none" xmlns="http://www.w3.org/2000/svg">
<path d="M24.6501 17.1361C24.4461 17.7638 24.6469 18.4367 25.1613 18.8503L29.7423 22.5323L28.2004 28.2039C28.0273 28.8407 28.2605 29.503 28.7947 29.8915C29.3292 30.2792 30.0307 30.2963 30.583 29.9349L35.5003 26.7159L40.4178 29.9351C40.6829 30.1085 40.9823 30.1948 41.2812 30.1948C41.6051 30.1948 41.9283 30.0934 42.2058 29.8915C42.7404 29.5034 42.9736 28.8407 42.8001 28.2039L41.2583 22.5325L45.8389 18.8506C46.3538 18.4371 46.5546 17.7641 46.3505 17.1361C46.1465 16.5079 45.5885 16.0815 44.9291 16.0496L39.0589 15.7634L36.9727 10.2689C36.7385 9.6517 36.1604 9.25274 35.5002 9.25274C34.84 9.25274 34.2619 9.65156 34.0278 10.2688L31.9416 15.7635L26.0717 16.0496C25.4121 16.0815 24.8541 16.5079 24.6501 17.1361ZM32.4704 17.959C33.0961 17.9285 33.644 17.5303 33.866 16.9449L35.5001 12.6412L37.1341 16.9453C37.3566 17.5306 37.9046 17.9285 38.5297 17.959L43.1275 18.1832L39.5393 21.0671C39.0511 21.4597 38.842 22.1039 39.0063 22.7079L40.214 27.1501L36.3623 24.6286C36.1004 24.4573 35.8001 24.3716 35.4999 24.3716C35.1997 24.3716 34.8992 24.4574 34.6371 24.6288L30.7857 27.1501L31.9934 22.7082C32.1579 22.1037 31.9486 21.4594 31.4602 21.0671L27.8722 18.1833L32.4704 17.959ZM34.3907 5.64534V1.57422C34.3907 0.961565 34.8874 0.464844 35.5001 0.464844C36.1127 0.464844 36.6094 0.961565 36.6094 1.57422V5.64534C36.6094 6.25799 36.1127 6.75471 35.5001 6.75471C34.8874 6.75471 34.3907 6.25799 34.3907 5.64534ZM41.1465 12.2181C40.7366 11.7628 40.7734 11.0613 41.2286 10.6514L45.7652 6.56639C46.2205 6.15634 46.9219 6.19309 47.332 6.64849C47.7419 7.10375 47.7051 7.80529 47.2499 8.2152L42.7132 12.3002C42.5012 12.4911 42.2358 12.5852 41.9712 12.5852C41.6679 12.5852 41.3656 12.4615 41.1465 12.2181ZM23.6682 6.64849C24.0781 6.19309 24.7795 6.15634 25.235 6.56639L29.7717 10.6514C30.2269 11.0613 30.2637 11.7628 29.8538 12.2181C29.6347 12.4613 29.3324 12.5852 29.029 12.5852C28.7645 12.5852 28.4991 12.4911 28.2869 12.3002L23.7503 8.2152C23.2949 7.80529 23.2583 7.10375 23.6682 6.64849ZM49.7322 18.8503L54.3131 22.5323L52.7713 28.2039C52.5982 28.8407 52.8313 29.503 53.3656 29.8915C53.8996 30.2792 54.6013 30.2962 55.1539 29.9349L60.0712 26.7159L64.9887 29.9351C65.2538 30.1085 65.5532 30.1948 65.852 30.1948C66.176 30.1948 66.4992 30.0934 66.7767 29.8915C67.311 29.5036 67.5442 28.8412 67.371 28.2039L65.8291 22.5325L70.4098 18.8506C70.9245 18.4372 71.1253 17.7643 70.9212 17.1361C70.7172 16.5079 70.1592 16.0815 69.5 16.0496L63.6297 15.7634L61.5437 10.2689C61.3095 9.6517 60.7314 9.25274 60.0712 9.25274C59.4109 9.25274 58.8327 9.65156 58.5985 10.2688L56.5125 15.7634L50.6427 16.0495C49.9829 16.0813 49.4249 16.5079 49.2209 17.1361C49.0168 17.7641 49.2176 18.4371 49.7322 18.8503ZM57.0411 17.959C57.667 17.9285 58.215 17.5303 58.4371 16.9447L60.0711 12.641L61.7049 16.9446C61.9271 17.5303 62.4752 17.9285 63.1007 17.9588L67.6985 18.1831L64.1108 21.0667C63.6222 21.4592 63.4128 22.1034 63.5773 22.7078L64.785 27.15L60.9333 24.6285C60.6712 24.4571 60.371 24.3714 60.0708 24.3714C59.7704 24.3714 59.4701 24.4573 59.2081 24.6286L55.3567 27.15L56.5644 22.708C56.7287 22.1039 56.5196 21.4597 56.0312 21.067L52.4432 18.1831L57.0411 17.959ZM0.590215 18.8503L5.17114 22.5323L3.62928 28.2039C3.45622 28.8407 3.68932 29.503 4.22361 29.8915C4.75804 30.2792 5.45957 30.2963 6.01189 29.9349L10.9292 26.7159L15.8467 29.9351C16.1118 30.1085 16.4112 30.1948 16.71 30.1948C17.034 30.1948 17.3572 30.0934 17.6347 29.8915C18.169 29.5036 18.4022 28.8412 18.229 28.2039L16.6872 22.5325L21.2678 18.8506C21.7823 18.4375 21.9832 17.7647 21.7792 17.1354C21.5748 16.5076 21.0168 16.0813 20.358 16.0495L14.4877 15.7632L12.4017 10.2689C12.1675 9.6517 11.5894 9.25274 10.9292 9.25274C10.2689 9.25274 9.69077 9.65156 9.45656 10.2688L7.37056 15.7634L1.50071 16.0495C0.841067 16.0813 0.283064 16.5079 0.0792212 17.1354C-0.125315 17.7637 0.0753384 18.437 0.590215 18.8503ZM7.89917 17.959C8.52498 17.9285 9.073 17.5303 9.29515 16.9447L10.9291 12.641L12.5629 16.9446C12.7852 17.5303 13.3332 17.9285 13.9587 17.9588L18.5566 18.1831L14.9688 21.0667C14.4802 21.4592 14.2709 22.1034 14.4353 22.7078L15.643 27.15L11.7913 24.6285C11.5292 24.4571 11.229 24.3714 10.9288 24.3714C10.6284 24.3714 10.3281 24.4573 10.0661 24.6286L6.21476 27.15L7.42242 22.708C7.58675 22.1039 7.37763 21.4597 6.88924 21.067L3.30119 18.1831L7.89917 17.959ZM70.8247 59.391C70.0441 56.8702 68.4454 54.6068 66.3228 53.0174C65.3066 52.2565 64.2001 51.6638 63.0327 51.2442C64.6511 49.9739 65.6939 48.002 65.6939 45.7898C65.6939 41.9672 62.584 38.8573 58.7616 38.8573C54.9391 38.8573 51.8291 41.9672 51.8291 45.7898C51.8291 47.9994 52.8694 49.9694 54.4846 51.2397C52.3199 52.0124 50.4021 53.37 48.9335 55.1994C48.2471 54.2391 47.4553 53.3471 46.5651 52.5421C44.7716 50.9201 42.6667 49.7289 40.3999 49.0249C42.8037 47.4313 44.3929 44.7026 44.3929 41.6087C44.3929 36.7053 40.4035 32.716 35.5002 32.716C30.5969 32.716 26.6075 36.7053 26.6075 41.6087C26.6075 44.7026 28.1965 47.4313 30.6003 49.0249C28.3334 49.7288 26.2285 50.9201 24.435 52.5421C23.5449 53.3471 22.7531 54.2391 22.0668 55.1992C20.5983 53.3697 18.6805 52.0121 16.5156 51.2393C18.1307 49.9689 19.1711 47.999 19.1711 45.7894C19.1711 41.9668 16.0612 38.8569 12.2388 38.8569C8.41626 38.8569 5.30634 41.9668 5.30634 45.7894C5.30634 48.0015 6.34913 49.9735 7.96739 51.2438C6.80008 51.6634 5.6935 52.2561 4.6772 53.0169C2.5546 54.6063 0.955885 56.8698 0.175319 59.3904C-0.185359 60.5547 0.0144629 61.7363 0.737898 62.7179C1.46119 63.6991 2.53088 64.2394 3.74978 64.2394H19.0856V66.2415C19.0856 69.1217 21.4287 71.4648 24.3088 71.4648H46.6913C49.5713 71.4648 51.9146 69.1217 51.9147 66.2415V64.2399H67.2504C68.4694 64.2399 69.5391 63.6995 70.2622 62.7184C70.9855 61.7369 71.1854 60.5551 70.8247 59.391ZM58.7616 41.0761C61.3607 41.0761 63.4752 43.1907 63.4752 45.7898C63.4752 48.3891 61.3607 50.5037 58.7616 50.5037C56.1624 50.5037 54.0478 48.3891 54.0478 45.7898C54.0478 43.1907 56.1624 41.0761 58.7616 41.0761ZM28.8262 41.6087C28.8262 37.9286 31.8202 34.9347 35.5002 34.9347C39.1802 34.9347 42.1742 37.9286 42.1742 41.6087C42.1742 45.2877 39.1821 48.2808 35.5038 48.2827H35.5001H35.4965C31.8181 48.2806 28.8262 45.2875 28.8262 41.6087ZM12.2388 41.0755C14.8379 41.0755 16.9524 43.1901 16.9524 45.7892C16.9524 48.3885 14.8379 50.5031 12.2388 50.5031C9.6396 50.5031 7.52504 48.3885 7.52504 45.7892C7.52504 43.1901 9.6396 41.0755 12.2388 41.0755ZM19.2297 62.0205H3.74992C3.23934 62.0205 2.82694 61.8122 2.52395 61.4012C2.22082 60.9901 2.14386 60.5345 2.29487 60.0468C3.65161 55.6654 7.6479 52.7219 12.2388 52.7219C15.7115 52.7219 18.8749 54.3998 20.8206 57.2402C20.0514 58.7345 19.5127 60.3452 19.2297 62.0205ZM49.696 66.2414C49.6959 67.8981 48.348 69.246 46.6913 69.246H24.3088C22.6521 69.246 21.3043 67.8981 21.3043 66.2414V63.1902C22.1074 55.9532 28.1983 50.5032 35.4965 50.5014L35.5002 50.5016L35.5038 50.5014C42.8018 50.5034 48.8926 55.9532 49.696 63.1902V66.2414ZM68.4763 61.4019C68.1733 61.8127 67.7611 62.021 67.2504 62.021H51.7708C51.4876 60.3456 50.9489 58.7349 50.1798 57.2405C52.1256 54.4002 55.2889 52.7224 58.7615 52.7224C63.3524 52.7224 67.3487 55.6661 68.7054 60.0475C68.8564 60.5349 68.7793 60.9906 68.4763 61.4019Z" fill="white"/>
</svg>
