<svg width="48" height="48" viewBox="0 0 48 48" fill="none" xmlns="http://www.w3.org/2000/svg">
<path d="M20.2867 41.0993C20.1124 41.0993 19.9362 41.0542 19.7776 40.9563C15.1931 38.1598 0.233398 27.8511 0.233398 12.6447C0.233398 6.13323 5.53069 0.835938 12.0421 0.835938C16.045 0.835938 19.6346 2.68656 21.7751 5.76115C23.9155 2.68656 27.5052 0.835938 31.508 0.835938C38.0194 0.835938 43.3167 6.13323 43.3167 12.6447C43.3167 14.2701 43.1464 15.9171 42.8076 17.5444C42.6959 18.0732 42.177 18.4061 41.6482 18.3043C41.1195 18.1926 40.7787 17.6756 40.8884 17.1449C41.1998 15.6488 41.3584 14.135 41.3584 12.6447C41.3584 7.21227 36.9404 2.79427 31.508 2.79427C27.6442 2.79427 24.2524 4.83485 22.6544 8.11898C22.3254 8.79265 21.2228 8.79265 20.8938 8.11898C19.2978 4.83485 15.904 2.79427 12.0421 2.79427C6.60973 2.79427 2.19173 7.21227 2.19173 12.6447C2.19173 26.8328 16.4327 36.6225 20.7959 39.2859C21.2581 39.5679 21.4049 40.1691 21.1229 40.6312C20.9389 40.9328 20.6157 41.0993 20.2867 41.0993Z" fill="white"/>
<path d="M35.4834 47.8351C35.3541 47.8351 35.2249 47.8097 35.1035 47.7568C34.6374 47.5629 23.7334 42.8492 23.7334 33.2181V25.0343C23.7334 24.6152 24.0017 24.2411 24.3992 24.106L35.1701 20.4694C35.3737 20.4008 35.5931 20.4008 35.7967 20.4694L46.5676 24.106C46.9651 24.2392 47.2334 24.6132 47.2334 25.0343V33.2181C47.2334 42.8492 36.3294 47.5629 35.8633 47.7587C35.7419 47.8097 35.6126 47.8351 35.4834 47.8351ZM25.6917 25.7373V33.2181C25.6917 40.6304 33.6328 44.8859 35.4834 45.7789C37.3321 44.8839 45.2751 40.6128 45.2751 33.2181V25.7373L35.4834 22.4316L25.6917 25.7373Z" fill="white"/>
<path d="M34.5046 38.0435C34.487 38.0435 34.4674 38.0435 34.4498 38.0415C34.1717 38.0258 33.9132 37.8927 33.7389 37.6753L29.8223 32.7795C29.4854 32.3565 29.554 31.7415 29.975 31.4028C30.398 31.064 31.0149 31.1345 31.3517 31.5555L34.5849 35.5975L40.6656 29.5169C41.0474 29.135 41.6682 29.135 42.0501 29.5169C42.432 29.8988 42.432 30.5195 42.0501 30.9014L35.1959 37.7556C35.0138 37.9416 34.7631 38.0435 34.5046 38.0435Z" fill="white"/>
</svg>
