<svg width="178" height="65" viewBox="0 0 178 65" fill="none" xmlns="http://www.w3.org/2000/svg">
<path d="M69.2986 41.875H70.3986V51H69.2986V41.875ZM73.9837 44.6C74.8254 43.9833 75.6545 43.675 76.4712 43.675C77.2879 43.675 77.8629 43.8625 78.1962 44.2375C78.5295 44.6042 78.6962 45.1667 78.6962 45.925V51H77.6212V45.95C77.6212 45.45 77.5254 45.0917 77.3337 44.875C77.142 44.6583 76.8212 44.55 76.3712 44.55C75.5962 44.55 74.8462 44.8292 74.1212 45.3875V51H73.0462V43.85H73.6837L73.9837 44.6ZM83.8124 47.0125C84.5624 47.1958 85.0957 47.4417 85.4124 47.75C85.7374 48.05 85.8999 48.5042 85.8999 49.1125C85.8999 49.7125 85.6749 50.2 85.2249 50.575C84.7749 50.95 84.1082 51.1375 83.2249 51.1375C82.3416 51.1375 81.6999 50.9708 81.2999 50.6375C80.9082 50.2958 80.6582 49.8042 80.5499 49.1625L81.4249 49.025C81.5499 49.8667 82.1207 50.2875 83.1374 50.2875C84.2624 50.2875 84.8249 49.9083 84.8249 49.15C84.8249 48.8167 84.7207 48.5708 84.5124 48.4125C84.3124 48.2542 83.9499 48.1083 83.4249 47.975L82.7124 47.8C81.9874 47.6167 81.4707 47.375 81.1624 47.075C80.8624 46.775 80.7124 46.3208 80.7124 45.7125C80.7124 45.0958 80.9291 44.6042 81.3624 44.2375C81.7957 43.8625 82.4332 43.675 83.2749 43.675C84.1249 43.675 84.7374 43.8458 85.1124 44.1875C85.4957 44.5208 85.7416 45.0083 85.8499 45.65L84.9624 45.7875C84.8541 44.9458 84.3207 44.525 83.3624 44.525C82.3124 44.525 81.7874 44.9042 81.7874 45.6625C81.7874 45.9958 81.8832 46.2458 82.0749 46.4125C82.2666 46.5708 82.6041 46.7125 83.0874 46.8375L83.8124 47.0125ZM89.8652 51.175C89.1236 51.175 88.5861 50.9917 88.2527 50.625C87.9194 50.25 87.7527 49.6917 87.7527 48.95V43.85H88.8277V48.875C88.8277 49.3667 88.9319 49.7292 89.1402 49.9625C89.3569 50.1875 89.6902 50.3 90.1402 50.3C90.9486 50.3 91.7027 49.8875 92.4027 49.0625V43.85H93.4777V51H92.7652L92.4277 49.9375C91.6527 50.7625 90.7986 51.175 89.8652 51.175ZM97.2047 51H96.1297V43.85H96.7672L97.1547 45.125C97.738 44.2 98.5922 43.7167 99.7172 43.675V44.6625C98.5922 44.7042 97.7547 45.1792 97.2047 46.0875V51ZM105.197 44.15C105.697 44.5083 105.947 45.1833 105.947 46.175V51H105.234L104.959 49.8875C104.159 50.7458 103.28 51.175 102.322 51.175C101.688 51.175 101.222 51.0083 100.922 50.675C100.63 50.3417 100.484 49.8917 100.484 49.325C100.484 48.7583 100.659 48.3 101.009 47.95C101.368 47.6 102.034 47.3458 103.009 47.1875L104.872 46.8875V46.175C104.872 45.5583 104.738 45.1333 104.472 44.9C104.213 44.6667 103.855 44.55 103.397 44.55C102.48 44.55 101.934 44.9958 101.759 45.8875L100.884 45.625C101.018 45.0083 101.297 44.5292 101.722 44.1875C102.147 43.8458 102.722 43.675 103.447 43.675C104.18 43.675 104.763 43.8333 105.197 44.15ZM102.622 50.35C103.372 50.35 104.122 49.9458 104.872 49.1375V47.6375L103.109 47.9375C102.518 48.0458 102.109 48.2167 101.884 48.45C101.659 48.675 101.547 48.9542 101.547 49.2875C101.547 49.6125 101.634 49.8708 101.809 50.0625C101.984 50.2542 102.255 50.35 102.622 50.35ZM109.408 44.6C110.25 43.9833 111.079 43.675 111.896 43.675C112.713 43.675 113.288 43.8625 113.621 44.2375C113.954 44.6042 114.121 45.1667 114.121 45.925V51H113.046V45.95C113.046 45.45 112.95 45.0917 112.758 44.875C112.567 44.6583 112.246 44.55 111.796 44.55C111.021 44.55 110.271 44.8292 109.546 45.3875V51H108.471V43.85H109.108L109.408 44.6ZM117.075 47.425C117.075 47.8333 117.1 48.1958 117.15 48.5125C117.2 48.8292 117.291 49.1292 117.425 49.4125C117.7 50.0042 118.221 50.3 118.987 50.3C119.612 50.3 120.058 50.1792 120.325 49.9375C120.6 49.6875 120.75 49.3208 120.775 48.8375L121.65 48.875C121.591 49.6167 121.358 50.1875 120.95 50.5875C120.541 50.9792 119.875 51.175 118.95 51.175C117.641 51.175 116.775 50.6417 116.35 49.575C116.116 48.9917 116 48.3542 116 47.6625C116 46.9708 116.041 46.4208 116.125 46.0125C116.208 45.5958 116.354 45.2 116.562 44.825C116.996 44.0583 117.791 43.675 118.95 43.675C119.875 43.675 120.541 43.8667 120.95 44.25C121.358 44.625 121.587 45.1708 121.637 45.8875L120.775 46.0125C120.75 45.5292 120.6 45.1667 120.325 44.925C120.058 44.675 119.612 44.55 118.987 44.55C118.221 44.55 117.7 44.8458 117.425 45.4375C117.191 45.9292 117.075 46.5917 117.075 47.425ZM125.91 51.175C124.818 51.175 124.039 50.8667 123.572 50.25C123.106 49.625 122.872 48.6833 122.872 47.425C122.872 44.925 123.868 43.675 125.86 43.675C127.826 43.675 128.81 44.875 128.81 47.275V47.5375H123.935C123.943 48.5208 124.093 49.2292 124.385 49.6625C124.676 50.0875 125.185 50.3 125.91 50.3C127.093 50.3 127.726 49.8208 127.81 48.8625L128.697 48.9125C128.539 50.4208 127.61 51.175 125.91 51.175ZM127.735 46.7375C127.693 46.0375 127.535 45.5 127.26 45.125C126.985 44.7417 126.522 44.55 125.872 44.55C125.222 44.55 124.756 44.7458 124.472 45.1375C124.189 45.5208 124.018 46.0542 123.96 46.7375H127.735ZM136.237 41.875H137.699L140.687 51H139.599L138.712 48.25H135.237L134.349 51H133.262L136.237 41.875ZM136.974 42.85L135.512 47.375H138.424L136.974 42.85ZM146.598 47.925C146.415 48.175 146.14 48.375 145.773 48.525C145.415 48.675 144.986 48.75 144.486 48.75C143.986 48.75 143.544 48.675 143.161 48.525L142.598 49.075C142.407 49.2583 142.311 49.4667 142.311 49.7C142.311 50.0083 142.503 50.1625 142.886 50.1625H145.686C146.294 50.1625 146.769 50.325 147.111 50.65C147.461 50.9667 147.636 51.3583 147.636 51.825C147.636 52.3 147.544 52.675 147.361 52.95C147.178 53.2333 146.915 53.4417 146.573 53.575C145.982 53.8 145.215 53.9125 144.273 53.9125C143.332 53.9125 142.603 53.7875 142.086 53.5375C141.578 53.2958 141.323 52.8833 141.323 52.3C141.323 51.725 141.573 51.2583 142.073 50.9C141.598 50.7167 141.361 50.3583 141.361 49.825C141.361 49.425 141.536 49.05 141.886 48.7L142.486 48.1C142.044 47.6667 141.823 47.0375 141.823 46.2125C141.823 45.5458 141.994 44.975 142.336 44.5C142.519 44.25 142.79 44.05 143.148 43.9C143.515 43.75 143.936 43.675 144.411 43.675C144.894 43.675 145.303 43.7333 145.636 43.85H147.523V44.5625H146.636C146.953 44.9958 147.111 45.5458 147.111 46.2125C147.111 46.8792 146.94 47.45 146.598 47.925ZM144.461 44.45C143.394 44.45 142.861 45.0375 142.861 46.2125C142.861 47.3875 143.394 47.975 144.461 47.975C145.536 47.975 146.073 47.3875 146.073 46.2125C146.073 45.0375 145.536 44.45 144.461 44.45ZM142.336 52.025C142.336 52.4417 142.507 52.7167 142.848 52.85C143.19 52.9833 143.719 53.05 144.436 53.05C145.161 53.05 145.69 52.975 146.023 52.825C146.365 52.6833 146.536 52.3792 146.536 51.9125C146.536 51.5875 146.415 51.3542 146.173 51.2125C145.94 51.0708 145.665 51 145.348 51H142.848C142.507 51.275 142.336 51.6167 142.336 52.025ZM151.764 51.175C150.673 51.175 149.893 50.8667 149.427 50.25C148.96 49.625 148.727 48.6833 148.727 47.425C148.727 44.925 149.723 43.675 151.714 43.675C153.681 43.675 154.664 44.875 154.664 47.275V47.5375H149.789C149.798 48.5208 149.948 49.2292 150.239 49.6625C150.531 50.0875 151.039 50.3 151.764 50.3C152.948 50.3 153.581 49.8208 153.664 48.8625L154.552 48.9125C154.393 50.4208 153.464 51.175 151.764 51.175ZM153.589 46.7375C153.548 46.0375 153.389 45.5 153.114 45.125C152.839 44.7417 152.377 44.55 151.727 44.55C151.077 44.55 150.61 44.7458 150.327 45.1375C150.043 45.5208 149.873 46.0542 149.814 46.7375H153.589ZM157.541 44.6C158.382 43.9833 159.212 43.675 160.028 43.675C160.845 43.675 161.42 43.8625 161.753 44.2375C162.087 44.6042 162.253 45.1667 162.253 45.925V51H161.178V45.95C161.178 45.45 161.082 45.0917 160.891 44.875C160.699 44.6583 160.378 44.55 159.928 44.55C159.153 44.55 158.403 44.8292 157.678 45.3875V51H156.603V43.85H157.241L157.541 44.6ZM165.207 47.425C165.207 47.8333 165.232 48.1958 165.282 48.5125C165.332 48.8292 165.424 49.1292 165.557 49.4125C165.832 50.0042 166.353 50.3 167.12 50.3C167.745 50.3 168.19 50.1792 168.457 49.9375C168.732 49.6875 168.882 49.3208 168.907 48.8375L169.782 48.875C169.724 49.6167 169.49 50.1875 169.082 50.5875C168.674 50.9792 168.007 51.175 167.082 51.175C165.774 51.175 164.907 50.6417 164.482 49.575C164.249 48.9917 164.132 48.3542 164.132 47.6625C164.132 46.9708 164.174 46.4208 164.257 46.0125C164.34 45.5958 164.486 45.2 164.695 44.825C165.128 44.0583 165.924 43.675 167.082 43.675C168.007 43.675 168.674 43.8667 169.082 44.25C169.49 44.625 169.72 45.1708 169.77 45.8875L168.907 46.0125C168.882 45.5292 168.732 45.1667 168.457 44.925C168.19 44.675 167.745 44.55 167.12 44.55C166.353 44.55 165.832 44.8458 165.557 45.4375C165.324 45.9292 165.207 46.5917 165.207 47.425ZM173.105 54.0625L172.13 53.8875L173.23 51.05L170.53 43.85H171.642L173.755 49.6375L175.805 43.85H176.905L173.105 54.0625Z" fill="#018AFE"/>
<path d="M69.2236 32V29.125L77.0986 17.6H69.2486V14.5H81.3986V17.375L73.4736 28.9H81.4236V32H69.2236ZM92.0076 32.3C90.291 32.3 88.7826 31.9167 87.4826 31.15C86.1826 30.3833 85.1576 29.325 84.4076 27.975C83.6743 26.6083 83.3076 25.0333 83.3076 23.25C83.3076 21.4667 83.6743 19.9 84.4076 18.55C85.1576 17.1833 86.1826 16.1167 87.4826 15.35C88.7826 14.5833 90.291 14.2 92.0076 14.2C93.7243 14.2 95.241 14.5833 96.5576 15.35C97.8743 16.1167 98.891 17.1833 99.6076 18.55C100.341 19.9 100.708 21.4667 100.708 23.25C100.708 25.0333 100.341 26.6083 99.6076 27.975C98.891 29.325 97.8743 30.3833 96.5576 31.15C95.241 31.9167 93.7243 32.3 92.0076 32.3ZM92.0076 28.925C93.0243 28.925 93.891 28.6917 94.6076 28.225C95.341 27.7583 95.9076 27.1083 96.3076 26.275C96.7076 25.425 96.9076 24.4167 96.9076 23.25C96.9076 22.0833 96.7076 21.0833 96.3076 20.25C95.9076 19.4 95.341 18.75 94.6076 18.3C93.891 17.8333 93.0243 17.6 92.0076 17.6C91.0243 17.6 90.166 17.8333 89.4326 18.3C88.6993 18.75 88.1326 19.4 87.7326 20.25C87.3326 21.0833 87.1326 22.0833 87.1326 23.25C87.1326 24.4167 87.3326 25.425 87.7326 26.275C88.1326 27.1083 88.6993 27.7583 89.4326 28.225C90.166 28.6917 91.0243 28.925 92.0076 28.925ZM103.511 32V14.5H110.311C111.728 14.5 112.903 14.75 113.836 15.25C114.786 15.7333 115.486 16.3833 115.936 17.2C116.403 18.0167 116.636 18.925 116.636 19.925C116.636 20.8583 116.411 21.7333 115.961 22.55C115.528 23.3667 114.844 24.025 113.911 24.525C112.978 25.025 111.769 25.275 110.286 25.275H107.261V32H103.511ZM112.536 32L109.011 24.35H113.036L116.786 32H112.536ZM107.261 22.575H110.086C111.019 22.575 111.703 22.35 112.136 21.9C112.586 21.45 112.811 20.8417 112.811 20.075C112.811 19.325 112.586 18.7333 112.136 18.3C111.703 17.85 111.019 17.625 110.086 17.625H107.261V22.575ZM123.915 32L117.615 14.5H121.615L126.24 28.2L130.915 14.5H134.89L128.565 32H123.915ZM136.885 32V14.5H140.635V32H136.885ZM143.114 32L148.664 23.125L143.014 14.5H147.364L151.089 20.175L154.414 14.5H158.664L153.139 23.3L158.839 32H154.489L150.739 26.225L147.364 32H143.114ZM160.051 32L166.426 14.5H170.726L177.101 32H173.126L168.551 18.725L163.976 32H160.051ZM162.826 28.175L163.826 25.275H173.001L173.976 28.175H162.826Z" fill="#010101"/>
<path d="M11.6383 23.876L0 46.7889L9.54924 60.4261L9.03424 64.9738H24.3677L23.8236 51.4268L12.0951 39.515L10.1835 44.7872L14.7312 52.1542L15.3684 58.4273L13.3666 53.1522L8.09154 45.3342L12.9127 32.0577C12.9127 32.0577 15.0047 26.3317 11.6383 23.876Z" fill="#018AFE"/>
<path d="M11.6383 23.876L0 46.7889L9.54924 60.4261L9.03424 64.9738H24.3677L23.8236 51.4268L12.0951 39.515L10.1835 44.7872L14.7312 52.1542L15.3684 58.4273L13.3666 53.1522L8.09154 45.3342L12.9127 32.0577C12.9127 32.0577 15.0047 26.3317 11.6383 23.876Z" fill="#018AFE"/>
<path d="M41.5546 23.876L53.1929 46.7889L43.6437 60.4261L44.1587 64.9738H28.8252L29.3693 51.4268L41.0978 39.515L43.0094 44.7872L38.4617 52.1542L37.8245 58.4273L39.8263 53.1522L45.0985 45.3342L40.2802 32.0577C40.2802 32.0577 38.1882 26.3317 41.5546 23.876Z" fill="#018AFE"/>
<path d="M41.5546 23.876L53.1929 46.7889L43.6437 60.4261L44.1587 64.9738H28.8252L29.3693 51.4268L41.0978 39.515L43.0094 44.7872L38.4617 52.1542L37.8245 58.4273L39.8263 53.1522L45.0985 45.3342L40.2802 32.0577C40.2802 32.0577 38.1882 26.3317 41.5546 23.876Z" fill="#018AFE"/>
<path d="M7.23877 0C11.9872 3.5846 19.7092 20.4456 19.5637 26.288C19.4706 30.0152 18.6938 34.6764 17.9577 38.3424L25.8921 46.981L33.8265 38.3424C33.0904 34.6764 32.3135 30.0152 32.2204 26.288C32.0749 20.4456 39.797 3.5846 44.5454 0C38.9474 1.56244 32.4095 14.2278 25.8921 15.8776C19.3746 14.2278 12.8368 1.56244 7.23877 0Z" fill="#010101"/>
<path d="M25.8921 2.59825C28.7056 2.59825 30.9838 4.87936 30.9838 7.69002C30.9838 10.5036 28.7056 12.7818 25.8921 12.7818C23.0785 12.7818 20.8003 10.5036 20.8003 7.69002C20.8003 4.87936 23.0785 2.59825 25.8921 2.59825Z" fill="#018AFE"/>
</svg>
